<?xml version="1.0" encoding="UTF-8" standalone="no"?>
<svg
   xmlns:dc="http://purl.org/dc/elements/1.1/"
   xmlns:cc="http://creativecommons.org/ns#"
   xmlns:rdf="http://www.w3.org/1999/02/22-rdf-syntax-ns#"
   xmlns:svg="http://www.w3.org/2000/svg"
   xmlns="http://www.w3.org/2000/svg"
   xmlns:sodipodi="http://sodipodi.sourceforge.net/DTD/sodipodi-0.dtd"
   xmlns:inkscape="http://www.inkscape.org/namespaces/inkscape"
   version="1.1"
   id="Layer_1"
   x="0px"
   y="0px"
   viewBox="0 0 480 480"
   style="enable-background:new 0 0 480 480;"
   xml:space="preserve"
   sodipodi:docname="pencil_plain.svg"
   inkscape:version="1.0.1 (c497b03c, 2020-09-10)"><metadata
   id="metadata51"><rdf:RDF><cc:Work
       rdf:about=""><dc:format>image/svg+xml</dc:format><dc:type
         rdf:resource="http://purl.org/dc/dcmitype/StillImage" /></cc:Work></rdf:RDF></metadata><defs
   id="defs49"><inkscape:path-effect
     effect="bspline"
     id="path-effect58"
     is_visible="true"
     lpeversion="1"
     weight="33.333333"
     steps="2"
     helper_size="0"
     apply_no_weight="true"
     apply_with_weight="true"
     only_selected="false" /><inkscape:path-effect
     effect="bspline"
     id="path-effect52"
     is_visible="true"
     lpeversion="1"
     weight="33.333333"
     steps="2"
     helper_size="0"
     apply_no_weight="true"
     apply_with_weight="true"
     only_selected="false" /><inkscape:path-effect
     effect="bspline"
     id="path-effect46"
     is_visible="true"
     lpeversion="1"
     weight="33.333333"
     steps="2"
     helper_size="0"
     apply_no_weight="true"
     apply_with_weight="true"
     only_selected="false" /><inkscape:path-effect
     effect="bspline"
     id="path-effect4118"
     is_visible="true"
     lpeversion="1"
     weight="33.333333"
     steps="2"
     helper_size="0"
     apply_no_weight="true"
     apply_with_weight="true"
     only_selected="false" /></defs><sodipodi:namedview
   pagecolor="#ffffff"
   bordercolor="#666666"
   borderopacity="1"
   objecttolerance="10"
   gridtolerance="10"
   guidetolerance="10"
   inkscape:pageopacity="0"
   inkscape:pageshadow="2"
   inkscape:window-width="1920"
   inkscape:window-height="961"
   id="namedview47"
   showgrid="false"
   inkscape:zoom="4.5423536"
   inkscape:cx="346.49238"
   inkscape:cy="425.98472"
   inkscape:window-x="1440"
   inkscape:window-y="23"
   inkscape:window-maximized="0"
   inkscape:current-layer="Layer_1"
   inkscape:document-rotation="0"
   inkscape:snap-bbox="false"
   inkscape:bbox-nodes="true"
   inkscape:snap-bbox-midpoints="true"
   inkscape:snap-global="true"
   inkscape:snap-midpoints="false"
   inkscape:object-paths="false"
   showguides="false"
   inkscape:snap-intersection-paths="false"
   inkscape:snap-others="false"
   inkscape:object-nodes="false"
   inkscape:snap-nodes="false" />
<style
   type="text/css"
   id="style10">
	.st0{fill:#FFFFFF;}
	.st1{fill:#0C7F99;}
</style>
<g
   id="g4045"><g
     id="g2276"
     transform="matrix(1.1957927,0,0,1,140.31834,-14.327808)"><g
       id="g3215"
       transform="translate(108.15452,-13.165368)"><path
         sodipodi:type="star"
         style="fill:#0000ff;stroke:#000000;stroke-width:0"
         id="path70"
         sodipodi:sides="4"
         sodipodi:cx="124.38119"
         sodipodi:cy="108.9109"
         sodipodi:r1="50.837822"
         sodipodi:r2="25.643389"
         sodipodi:arg1="0.78697364"
         sodipodi:arg2="1.5723718"
         inkscape:flatsided="true"
         inkscape:rounded="0.08"
         inkscape:randomized="0"
         transform="matrix(1.280297,0,0,2.2849074,-166.39269,87.239708)"
         inkscape:transform-center-x="7.8781381"
         inkscape:transform-center-y="-18.518066"
         d="m 160.27228,144.91526 c -4.07343,4.06061 -67.834838,3.96015 -71.895451,-0.11327 -4.060614,-4.07343 -3.960159,-67.834839 0.113269,-71.895453 4.073428,-4.060613 67.834832,-3.960158 71.895452,0.11327 4.06061,4.073428 3.96015,67.834833 -0.11327,71.895453 z" /><path
         style="fill:#e6e6e6;stroke:none;stroke-width:1.42783px;stroke-linecap:butt;stroke-linejoin:miter;stroke-opacity:1"
         d="M -7.1091585,493.28065 38.822062,418.39287 -7.1091585,493.28065"
         id="path2386"
         sodipodi:nodetypes="ccc" /><g
         id="g3948" /><g
         id="g3956"
         transform="translate(-1.1804973,-7.791845)"><path
           style="fill:none;stroke:#000000;stroke-width:1.35848;stroke-linecap:butt;stroke-linejoin:miter;stroke-miterlimit:4;stroke-dasharray:none;stroke-opacity:1"
           d="m -46.983011,231.30937 c 2.341805,-3.37998 6.787454,-5.88123 11.740689,-6.60567 4.300832,-0.62902 8.915318,0.073 12.560295,1.91068"
           id="path74"
           sodipodi:nodetypes="csc"
           inkscape:original-d="m 88.133474,55.340687 c 7.539745,-4.685364 1.602758,-2.114343 9.141915,-6.800025 7.539181,-4.685682 8.272511,2.175293 9.780111,1.966887" /><path
           style="fill:none;stroke:#000000;stroke-width:1.36342;stroke-linecap:butt;stroke-linejoin:miter;stroke-miterlimit:4;stroke-dasharray:none;stroke-opacity:1"
           d="m 33.649378,231.79025 c -2.291427,-3.47943 -6.641454,-6.05428 -11.488133,-6.80003 -4.208309,-0.64752 -8.723527,0.0751 -12.2900855,1.96689"
           id="path901"
           sodipodi:nodetypes="csc"
           inkscape:original-d="m 134.37081,54.81152 c -7.53976,-4.685364 -1.60277,-2.114343 -9.14193,-6.800025 -7.53918,-4.685682 -8.27251,2.175293 -9.78011,1.966887" /></g><path
         style="fill:none;stroke:#000000;stroke-width:0.914475px;stroke-linecap:butt;stroke-linejoin:miter;stroke-opacity:1"
         d="m -55.340313,297.9397 c -12.423338,11.70234 -24.846611,23.40462 -25.339843,34.77342 -0.493231,11.3688 10.942141,22.40282 22.376809,33.43616"
         id="path50"
         inkscape:path-effect="#path-effect52"
         inkscape:original-d="m -55.340313,297.9397 c -12.422445,11.70329 -24.84572,23.40557 -37.269837,35.10686 11.436667,11.03546 22.872039,22.06948 34.306803,33.10272"
         sodipodi:nodetypes="ccc" /><path
         style="fill:none;stroke:#000000;stroke-width:0.914475px;stroke-linecap:butt;stroke-linejoin:miter;stroke-opacity:1"
         d="m 40.910796,297.95383 c 12.953726,-2.13347 25.906799,-4.26684 32.287783,-15.72143 6.380985,-11.45458 6.190532,-32.23068 6.000066,-53.00821"
         id="path56"
         inkscape:path-effect="#path-effect58"
         inkscape:original-d="m 40.910796,297.95383 c 12.953909,-2.13236 25.906982,-4.26573 38.859219,-6.4001 -0.189624,-20.77592 -0.380075,-41.55202 -0.57137,-62.32954" /><ellipse
         style="fill:#fff6d5;stroke:#000000;stroke-width:0"
         id="path62"
         cx="-38.309742"
         cy="414.48535"
         rx="15.220325"
         ry="9.8626413" /><ellipse
         style="fill:#fff6d5;stroke:#000000;stroke-width:0"
         id="ellipse68"
         cx="-6.8992653"
         cy="417.00662"
         rx="17.561571"
         ry="12.383918" /><path
         sodipodi:type="star"
         style="fill:#fff6d5;stroke:#000000;stroke-width:0"
         id="path64"
         sodipodi:sides="3"
         sodipodi:cx="74.186775"
         sodipodi:cy="362.3075"
         sodipodi:r1="79.517159"
         sodipodi:r2="39.758579"
         sodipodi:arg1="-0.49761512"
         sodipodi:arg2="0.54958243"
         inkscape:flatsided="true"
         inkscape:rounded="0.08"
         inkscape:randomized="0"
         d="m 144.06037,324.35147 c 5.25934,9.68197 -60.925007,117.7326 -71.939509,117.44634 C 61.10636,441.51155 0.62393793,330.16891 6.3790983,320.7732 12.134259,311.3775 138.80103,314.6695 144.06037,324.35147 Z"
         transform="matrix(0.66830956,0,0,0.58443636,-57.712856,227.79494)"
         inkscape:transform-center-x="-0.79029042"
         inkscape:transform-center-y="9.4573651" /><path
         sodipodi:type="star"
         style="fill:#0000ff;stroke:#000000;stroke-width:0"
         id="path66"
         sodipodi:sides="3"
         sodipodi:cx="74.186775"
         sodipodi:cy="362.3075"
         sodipodi:r1="79.517159"
         sodipodi:r2="39.758579"
         sodipodi:arg1="-0.49761512"
         sodipodi:arg2="0.54958243"
         inkscape:flatsided="true"
         inkscape:rounded="0.08"
         inkscape:randomized="0"
         d="m 144.06037,324.35147 c 5.25934,9.68197 -60.925007,117.7326 -71.939509,117.44634 C 61.10636,441.51155 0.62393793,330.16891 6.3790983,320.7732 12.134259,311.3775 138.80103,314.6695 144.06037,324.35147 Z"
         transform="matrix(0.30170189,0,0,0.21822023,-31.34379,390.52403)"
         inkscape:transform-center-x="-0.35677164"
         inkscape:transform-center-y="3.5312528" /><ellipse
         style="fill:#fff6d5;stroke:#000000;stroke-width:0"
         id="path62-4"
         cx="24.324961"
         cy="416.65042"
         rx="15.220325"
         ry="9.8626413" /></g></g></g><path
   class="st0"
   d="m 251.6,222.15624 c 0,4.2 -1.4,8.2 -3.7,11.3 l -30.4,0.3 c -2.6,-3.1 -4,-7.3 -4,-11.6 0,-10.50001 8.5,-19.00001 19,-19.00001 10.6,-0.1 19.1,8.5 19.1,19.00001 z"
   id="path12"
   style="fill:#cccccc" />
<path
   class="st0"
   d="m 306.6,222.15624 c 0,4.2 -1.4,8.2 -3.7,11.3 l -30.4,0.3 c -2.6,-3.1 -4,-7.3 -4,-11.6 0,-10.50001 8.5,-19.00001 19,-19.00001 10.6,-0.1 19.1,8.5 19.1,19.00001 z"
   id="path14"
   style="fill:#cccccc" />
<path
   d="m 238,207.25623 c -1.3,0.1 -2.3,1.1 -2.3,2.4 0,1.3 1.1,2.4 2.4,2.4 1.3,0 2.4,-1.1 2.4,-2.4 0,-1.3 -1.1,-2.4 -2.4,-2.4 0,0 -0.1,0 -0.1,0 l 2.9,-1 c 4.3,0 7.7,3.5 7.7,7.7 0,4.2 -3.5,7.70001 -7.7,7.70001 -4.2,0 -7.7,-3.50001 -7.7,-7.70001 0,-4.2 3.5,-7.7 7.7,-7.7"
   id="path16"
   style="fill:#241c1c" />
<path
   d="m 293,207.25623 c -1.3,0.1 -2.3,1.1 -2.3,2.4 0,1.3 1.1,2.4 2.4,2.4 1.3,0 2.4,-1.1 2.4,-2.4 0,-1.3 -1.1,-2.4 -2.4,-2.4 0,0 -0.1,0 -0.1,0 l 2.9,-1 c 4.3,0 7.7,3.5 7.7,7.7 0,4.2 -3.5,7.70001 -7.7,7.70001 -4.2,0 -7.7,-3.50001 -7.7,-7.70001 0,-4.2 3.5,-7.7 7.7,-7.7"
   id="path18"
   style="fill:#241c1c" />

<path
   d="m 248.3,251.1 c 5.5,0 1.9,0.1 13.5,0 10.3,-0.1 12.4,-0.1 15.7,-0.2 0,0 -0.3,-3.1 -0.3,-3.1 -3.7,0.1 -9.3,0.2 -14.7,0.2 -3.9,0 -8.5,0 -14.6,0"
   id="path22"
   style="fill:#cccccc" />
</svg>
