<?xml version="1.0" encoding="UTF-8" standalone="no"?>
<svg
   xmlns:dc="http://purl.org/dc/elements/1.1/"
   xmlns:cc="http://creativecommons.org/ns#"
   xmlns:rdf="http://www.w3.org/1999/02/22-rdf-syntax-ns#"
   xmlns:svg="http://www.w3.org/2000/svg"
   xmlns="http://www.w3.org/2000/svg"
   xmlns:sodipodi="http://sodipodi.sourceforge.net/DTD/sodipodi-0.dtd"
   xmlns:inkscape="http://www.inkscape.org/namespaces/inkscape"
   version="1.1"
   id="Layer_1"
   x="0px"
   y="0px"
   viewBox="0 0 480 480"
   style="enable-background:new 0 0 480 480;"
   xml:space="preserve"
   sodipodi:docname="pencil_sad.svg"
   inkscape:version="1.0.1 (c497b03c, 2020-09-10)"><metadata
   id="metadata51"><rdf:RDF><cc:Work
       rdf:about=""><dc:format>image/svg+xml</dc:format><dc:type
         rdf:resource="http://purl.org/dc/dcmitype/StillImage" /></cc:Work></rdf:RDF></metadata><defs
   id="defs49"><inkscape:path-effect
     effect="bspline"
     id="path-effect58"
     is_visible="true"
     lpeversion="1"
     weight="33.333333"
     steps="2"
     helper_size="0"
     apply_no_weight="true"
     apply_with_weight="true"
     only_selected="false" /><inkscape:path-effect
     effect="bspline"
     id="path-effect52"
     is_visible="true"
     lpeversion="1"
     weight="33.333333"
     steps="2"
     helper_size="0"
     apply_no_weight="true"
     apply_with_weight="true"
     only_selected="false" /><inkscape:path-effect
     effect="bspline"
     id="path-effect46"
     is_visible="true"
     lpeversion="1"
     weight="33.333333"
     steps="2"
     helper_size="0"
     apply_no_weight="true"
     apply_with_weight="true"
     only_selected="false" /><inkscape:path-effect
     effect="bspline"
     id="path-effect4118"
     is_visible="true"
     lpeversion="1"
     weight="33.333333"
     steps="2"
     helper_size="0"
     apply_no_weight="true"
     apply_with_weight="true"
     only_selected="false" /></defs><sodipodi:namedview
   pagecolor="#ffffff"
   bordercolor="#666666"
   borderopacity="1"
   objecttolerance="10"
   gridtolerance="10"
   guidetolerance="10"
   inkscape:pageopacity="0"
   inkscape:pageshadow="2"
   inkscape:window-width="1920"
   inkscape:window-height="961"
   id="namedview47"
   showgrid="false"
   inkscape:zoom="3.7178352"
   inkscape:cx="136.42097"
   inkscape:cy="202.60863"
   inkscape:window-x="1440"
   inkscape:window-y="23"
   inkscape:window-maximized="0"
   inkscape:current-layer="Layer_1"
   inkscape:document-rotation="0"
   inkscape:snap-bbox="false"
   inkscape:bbox-nodes="true"
   inkscape:snap-bbox-midpoints="true"
   inkscape:snap-global="true"
   inkscape:snap-midpoints="false"
   inkscape:object-paths="false"
   showguides="false"
   inkscape:snap-intersection-paths="false"
   inkscape:snap-others="false"
   inkscape:object-nodes="false"
   inkscape:snap-nodes="false" />
<style
   type="text/css"
   id="style10">
	.st0{fill:#FFFFFF;}
	.st1{fill:#0C7F99;}
</style>
<g
   id="g4045"><g
     id="g2276"
     transform="matrix(1.1957927,0,0,1,140.31834,-14.327808)"><g
       id="g3215"
       transform="translate(108.15452,-13.165368)"><path
         sodipodi:type="star"
         style="fill:#0000ff;stroke:#000000;stroke-width:0"
         id="path70"
         sodipodi:sides="4"
         sodipodi:cx="124.38119"
         sodipodi:cy="108.9109"
         sodipodi:r1="50.837822"
         sodipodi:r2="25.643389"
         sodipodi:arg1="0.78697364"
         sodipodi:arg2="1.5723718"
         inkscape:flatsided="true"
         inkscape:rounded="0.08"
         inkscape:randomized="0"
         transform="matrix(1.280297,0,0,2.2849074,-166.39269,87.239708)"
         inkscape:transform-center-x="7.8781381"
         inkscape:transform-center-y="-18.518066"
         d="m 160.27228,144.91526 c -4.07343,4.06061 -67.834838,3.96015 -71.895451,-0.11327 -4.060614,-4.07343 -3.960159,-67.834839 0.113269,-71.895453 4.073428,-4.060613 67.834832,-3.960158 71.895452,0.11327 4.06061,4.073428 3.96015,67.834833 -0.11327,71.895453 z" /><path
         style="fill:#e6e6e6;stroke:none;stroke-width:1.42783px;stroke-linecap:butt;stroke-linejoin:miter;stroke-opacity:1"
         d="M -7.1091585,493.28065 38.822062,418.39287 -7.1091585,493.28065"
         id="path2386"
         sodipodi:nodetypes="ccc" /><g
         id="g3948" /><g
         id="g3956"
         transform="translate(-1.1804973,-7.791845)"><path
           style="fill:none;stroke:#000000;stroke-width:1.35848;stroke-linecap:butt;stroke-linejoin:miter;stroke-miterlimit:4;stroke-dasharray:none;stroke-opacity:1"
           d="m -22.682027,234.47811 c -2.34181,3.37998 -6.787455,5.88123 -11.740688,6.60567 -4.300838,0.62902 -8.915317,-0.073 -12.560296,-1.91068"
           id="path74"
           sodipodi:nodetypes="csc"
           inkscape:original-d="m 88.133474,55.340687 c 7.539745,-4.685364 1.602758,-2.114343 9.141915,-6.800025 7.539181,-4.685682 8.272511,2.175293 9.780111,1.966887" /><path
           style="fill:none;stroke:#000000;stroke-width:1.36342;stroke-linecap:butt;stroke-linejoin:miter;stroke-miterlimit:4;stroke-dasharray:none;stroke-opacity:1"
           d="m 9.8711592,226.75799 c 2.2914258,3.47943 6.6414518,6.05428 11.4881288,6.80003 4.208313,0.64752 8.723527,-0.0751 12.29009,-1.96689"
           id="path901"
           sodipodi:nodetypes="csc"
           inkscape:original-d="m 134.37081,54.81152 c -7.53976,-4.685364 -1.60277,-2.114343 -9.14193,-6.800025 -7.53918,-4.685682 -8.27251,2.175293 -9.78011,1.966887" /></g><path
         style="fill:none;stroke:#000000;stroke-width:0.914475px;stroke-linecap:butt;stroke-linejoin:miter;stroke-opacity:1"
         d="m -55.340313,297.9397 c -12.423338,11.70234 -24.846611,23.40462 -28.504374,37.7322 -3.657762,14.32757 1.449387,31.27865 6.556294,48.22892"
         id="path50"
         inkscape:path-effect="#path-effect52"
         inkscape:original-d="m -55.340313,297.9397 c -12.422445,11.70329 -24.84572,23.40557 -37.269837,35.10686 5.108191,16.95276 10.215341,33.90384 15.321757,50.85426"
         sodipodi:nodetypes="ccc" /><path
         style="fill:none;stroke:#000000;stroke-width:0.914475px;stroke-linecap:butt;stroke-linejoin:miter;stroke-opacity:1"
         d="m 40.910796,295.95383 c 11.117691,10.105 22.2342,20.20892 26.158631,35.04012 3.924431,14.8312 0.657565,34.38852 -2.609227,53.94539"
         id="path56"
         inkscape:path-effect="#path-effect58"
         inkscape:original-d="m 40.910796,295.95383 c 11.117571,10.10513 22.234083,20.20905 33.350198,30.31238 -3.266159,19.5591 -6.533026,39.11642 -9.800794,58.67313"
         sodipodi:nodetypes="ccc" /><ellipse
         style="fill:#fff6d5;stroke:#000000;stroke-width:0"
         id="path62"
         cx="-38.309742"
         cy="414.48535"
         rx="15.220325"
         ry="9.8626413" /><ellipse
         style="fill:#fff6d5;stroke:#000000;stroke-width:0"
         id="ellipse68"
         cx="-6.8992653"
         cy="417.00662"
         rx="17.561571"
         ry="12.383918" /><path
         sodipodi:type="star"
         style="fill:#fff6d5;stroke:#000000;stroke-width:0"
         id="path64"
         sodipodi:sides="3"
         sodipodi:cx="74.186775"
         sodipodi:cy="362.3075"
         sodipodi:r1="79.517159"
         sodipodi:r2="39.758579"
         sodipodi:arg1="-0.49761512"
         sodipodi:arg2="0.54958243"
         inkscape:flatsided="true"
         inkscape:rounded="0.08"
         inkscape:randomized="0"
         d="m 144.06037,324.35147 c 5.25934,9.68197 -60.925007,117.7326 -71.939509,117.44634 C 61.10636,441.51155 0.62393793,330.16891 6.3790983,320.7732 12.134259,311.3775 138.80103,314.6695 144.06037,324.35147 Z"
         transform="matrix(0.66830956,0,0,0.58443636,-57.712856,227.79494)"
         inkscape:transform-center-x="-0.79029042"
         inkscape:transform-center-y="9.4573651" /><path
         sodipodi:type="star"
         style="fill:#0000ff;stroke:#000000;stroke-width:0"
         id="path66"
         sodipodi:sides="3"
         sodipodi:cx="74.186775"
         sodipodi:cy="362.3075"
         sodipodi:r1="79.517159"
         sodipodi:r2="39.758579"
         sodipodi:arg1="-0.49761512"
         sodipodi:arg2="0.54958243"
         inkscape:flatsided="true"
         inkscape:rounded="0.08"
         inkscape:randomized="0"
         d="m 144.06037,324.35147 c 5.25934,9.68197 -60.925007,117.7326 -71.939509,117.44634 C 61.10636,441.51155 0.62393793,330.16891 6.3790983,320.7732 12.134259,311.3775 138.80103,314.6695 144.06037,324.35147 Z"
         transform="matrix(0.30170189,0,0,0.21822023,-31.34379,390.52403)"
         inkscape:transform-center-x="-0.35677164"
         inkscape:transform-center-y="3.5312528" /><ellipse
         style="fill:#fff6d5;stroke:#000000;stroke-width:0"
         id="path62-4"
         cx="24.324961"
         cy="416.65042"
         rx="15.220325"
         ry="9.8626413" /></g></g></g><path
   class="st0"
   d="m 251.6,222.15624 c 0,4.2 -1.4,8.2 -3.7,11.3 -9.64184,-2.37078 -19.93171,-2.56613 -30.4,0.3 -2.6,-3.1 -3.54205,-7.32446 -4,-11.6 -0.97086,-9.06424 11.34687,-5.868 23.92638,-16.66646 10.6,-0.1 14.17362,6.16645 14.17362,16.66646 z"
   id="path12"
   style="fill:#cccccc"
   sodipodi:nodetypes="sccscs" />
<path
   class="st0"
   d="m 305.399,217.11203 c 4.66165,-0.0598 -0.199,13.24421 -2.499,16.34421 -7.70592,-0.50662 -28.94703,-3.36153 -30.4,0.3 -2.6,-3.1 -3.93743,-7.30045 -4,-11.6 -0.23492,-16.14416 3.08705,-13.07939 11.82275,-15.16457 3.4904,2.80559 10.90881,10.30198 25.07625,10.12036 z"
   id="path14"
   style="fill:#cccccc"
   sodipodi:nodetypes="sccscs" />
<path
   d="m 234.19999,228.85623 c 0.1,1.3 1.1,2.3 2.4,2.3 1.30001,0 2.40001,-1.1 2.40001,-2.4 0,-1.3 -1.1,-2.4 -2.40001,-2.4 -1.3,0 -2.4,1.1 -2.4,2.4 v 0.1 l -1,-2.9 c 0,-4.3 3.5,-7.7 7.7,-7.7 4.2,0 7.70001,3.5 7.70001,7.7 0,4.2 -3.50001,6.19544 -7.70001,6.19544 -4.2,0 -7.7,-1.99544 -7.7,-6.19544"
   id="path16"
   style="fill:#241c1c"
   sodipodi:nodetypes="cssssccsssc" />
<path
   d="m 277.19999,228.85623 c 0.1,1.3 1.1,2.3 2.4,2.3 1.3,0 2.4,-1.1 2.4,-2.4 0,-1.3 -1.1,-2.4 -2.4,-2.4 -1.3,0 -2.4,1.1 -2.4,2.4 v 0.1 l -1,-2.9 c 0,-4.3 3.5,-7.7 7.7,-7.7 4.2,0 7.70001,3.5 7.70001,7.7 0,4.2 -3.68808,6.00737 -7.88808,6.00737 -4.2,0 -7.51193,-1.80737 -7.51193,-6.00737"
   id="path18"
   style="fill:#241c1c"
   sodipodi:nodetypes="cssssccsssc" />

<path
   d="m 251.391,256.52202 c 0.7349,0.59085 0.0139,-4.58474 11.71863,-6.45288 7.36476,-1.16834 11.13634,2.77793 13.3508,6.38687 2.55493,1.40396 2.06693,-1.63423 0.59757,-2.85271 -2.52399,-2.5234 -6.93578,-7.04233 -14.37708,-5.69376 -3.4411,0.62362 -13.00769,2.50493 -11.22289,8.64331"
   id="path22"
   style="fill:#cccccc"
   sodipodi:nodetypes="ccccsc" />
</svg>
